<?xml version="1.0" encoding="utf-8"?>
<!-- Generator: Adobe Illustrator 16.0.0, SVG Export Plug-In . SVG Version: 6.00 Build 0)  -->
<!DOCTYPE svg PUBLIC "-//W3C//DTD SVG 1.1//EN" "http://www.w3.org/Graphics/SVG/1.1/DTD/svg11.dtd">
<svg version="1.1" id="supra" xmlns="http://www.w3.org/2000/svg" xmlns:xlink="http://www.w3.org/1999/xlink" x="0px" y="0px"
	 width="144px" height="126px" viewBox="0 0.25 144 126" enable-background="new 0 0.25 144 126" xml:space="preserve">
<g id="face4">
	<path id="D4" opacity="0.25" fill="#312B33" enable-background="new    " d="M129.6,124l7.2-21.6c0,0-57.6-25.2-72-10.801
		L75.6,111.4C86.4,100.6,129.5,124,129.6,124z"/>
	<path id="B4" opacity="0.25" fill="#004254" enable-background="new    " d="M129.6,84.4l7.2-21.601c0,0-81-18-102.6,3.6L45,86.2
		C63,68.2,129.6,84.4,129.6,84.4z"/>
	<path id="R4" opacity="0.25" fill="#FF3C00" enable-background="new    " d="M129.6,44.8l7.2-21.6c0,0-104.4-10.8-133.2,18L14.4,61
		C39.6,35.8,129.6,44.8,129.6,44.8z"/>
</g>
<g id="diamonds">
	<polygon id="D3_2_" opacity="0.5" fill="#312B33" enable-background="new    " points="95.4,116.8 84.6,97 64.8,91.6 75.6,111.4 	
		"/>
	<polygon id="D2" opacity="0.75" fill="#312B33" enable-background="new    " points="129.5,124 136.7,102.4 129.5,84.4 122.3,106 	
		"/>
	<polygon id="R3_2_" opacity="0.5" fill="#FF3C00" enable-background="new    " points="34.2,66.4 23.4,46.6 3.6,41.2 14.4,61 	"/>
	<polygon id="R2" opacity="0.75" fill="#FF3C00" enable-background="new    " points="129.6,44.8 136.8,23.2 129.6,5.2 122.4,26.8 	
		"/>
	<polygon id="B3_2_" opacity="0.5" fill="#004254" enable-background="new    " points="64.8,91.6 54,71.8 34.2,66.4 45,86.2 	"/>
	<polygon id="B2" opacity="0.75" fill="#004254" enable-background="new    " points="129.6,84.4 136.8,62.8 129.6,44.8 122.4,66.4 
			"/>
</g>
<g id="face1">
	<path id="D1_2_" fill="#312B33" d="M84.6,97c0,0,23.301-12.6,45-12.6L122.4,106c-14.5,0-27,10.8-27,10.8L84.6,97z"/>
	<path id="R1_2_" fill="#FF3C00" d="M122.4,26.8L129.6,5.2C86.3,5.2,23.4,46.6,23.4,46.6l10.8,19.8C34.2,66.4,86.3,26.8,122.4,26.8z
		"/>
	<path id="B1_2_" fill="#004254" d="M122.4,66.4l7.199-21.6c-32.5,0-75.6,27-75.6,27l10.8,19.8C64.8,91.6,97.1,66.4,122.4,66.4z"/>
</g>
</svg>
